<?xml version="1.0" encoding="UTF-8" standalone="no"?>
<svg
   xmlns:dc="http://purl.org/dc/elements/1.1/"
   xmlns:cc="http://creativecommons.org/ns#"
   xmlns:rdf="http://www.w3.org/1999/02/22-rdf-syntax-ns#"
   xmlns:svg="http://www.w3.org/2000/svg"
   xmlns="http://www.w3.org/2000/svg"
   xmlns:sodipodi="http://sodipodi.sourceforge.net/DTD/sodipodi-0.dtd"
   xmlns:inkscape="http://www.inkscape.org/namespaces/inkscape"
   width="1109"
   height="901"
   id="svg2"
   version="1.1"
   inkscape:version="0.91 r"
   sodipodi:docname="twitter-312464.svg">
  <metadata
     id="metadata22">
    <rdf:RDF>
      <cc:Work
         rdf:about="">
        <dc:format>image/svg+xml</dc:format>
        <dc:type
           rdf:resource="http://purl.org/dc/dcmitype/StillImage" />
      </cc:Work>
    </rdf:RDF>
  </metadata>
  <defs
     id="defs20" />
  <sodipodi:namedview
     pagecolor="#ffffff"
     bordercolor="#666666"
     borderopacity="1"
     objecttolerance="10"
     gridtolerance="10"
     guidetolerance="10"
     inkscape:pageopacity="0"
     inkscape:pageshadow="2"
     inkscape:window-width="1920"
     inkscape:window-height="1021"
     id="namedview18"
     showgrid="false"
     inkscape:zoom="0.2380523"
     inkscape:cx="-1144.9525"
     inkscape:cy="410.69695"
     inkscape:window-x="0"
     inkscape:window-y="0"
     inkscape:window-maximized="1"
     inkscape:current-layer="svg2" />
  <g
     stroke-width=".5"
     fill-rule="evenodd"
     id="g4"
     style="fill:none;stroke:#657bc1;stroke-opacity:1;stroke-width:8;stroke-miterlimit:4;stroke-dasharray:none;fill-opacity:1;stroke-linejoin:round;stroke-linecap:square">
    <g
       stroke="#fff"
       fill="#fff"
       id="g8"
       style="fill:none;stroke:#657bc1;stroke-opacity:1;stroke-width:8;stroke-miterlimit:4;stroke-dasharray:none;fill-opacity:1;stroke-linejoin:round;stroke-linecap:square">
      <path
         style="fill:none;fill-opacity:1;stroke:#657bc1;stroke-width:8;stroke-miterlimit:4;stroke-dasharray:none;stroke-opacity:1;stroke-linejoin:round;stroke-linecap:square"
         d="M 762.71337,737.82682 C 898.14725,619.01711 978.5509,440.94104 980.45711,261.05798 c 2.47541,-52.72674 61.63299,-69.97142 85.98889,-111.26005 7.3999,-9.02851 14.5035,-18.29815 21.9299,-29.10112 -31.0812,8.15492 -107.01281,36.72083 -112.68822,24.99689 C 1014.0675,117.32507 1045.4895,77.818114 1059.0698,31.621664 1010.9341,49.781624 949.97812,100.91321 901.14932,66.582248 871.29903,45.784987 839.42494,25.079626 804.01544,20.121617 781.97736,15.584331 757.66103,14.473212 734.19614,16.3902 615.66888,34.16499 535.62478,192.11967 521.0692,282.5357 355.50312,268.55632 198.52111,181.80608 93.065767,55.79953 37.387465,149.30077 65.218054,282.27845 154.82211,344.44508 132.24875,357.03811 86.372594,323.04741 61.864059,327.26164 c 0.892202,95.60606 70.995011,186.23221 163.880601,209.80311 6.64657,10.29158 -63.16465,10.78136 -87.31083,5.48576 27.04398,85.11285 107.46365,146.77022 196.08698,153.47824 0.47695,13.7012 -51.94882,38.07488 -75.2814,50.26169 -74.31946,35.92557 -157.72202,45.97624 -239.379636,41.12031 143.891836,91.40124 324.651006,120.13675 491.448436,79.04133 93.46804,-22.80047 180.54123,-64.548 251.40516,-128.62526 z"
         id="path12"
         inkscape:connector-curvature="0"
         sodipodi:nodetypes="cccccccccccccccccccc" />
    </g>
  </g>
</svg>
